<?xml version="1.0" encoding="iso-8859-1"?>
<!-- Generator: Adobe Illustrator 19.0.0, SVG Export Plug-In . SVG Version: 6.00 Build 0)  -->
<svg version="1.1" id="Layer_1" xmlns="http://www.w3.org/2000/svg" xmlns:xlink="http://www.w3.org/1999/xlink" x="0px" y="0px"
	 viewBox="0 0 512 512" style="enable-background:new 0 0 512 512;" xml:space="preserve">

	 <!-- original brown #AE7E0F -->
<path style="fill:#FC9867;" d="M501.843,161.234c-1.471-3.628-6.849-2.504-6.815,1.412c0.001,0.077,0.001,0.153,0.001,0.228
	c0,32.462-23.13,59.515-53.806,65.597l0,0c-4.231,0.84-8.602,1.288-13.079,1.288c-23.236,0-43.705-11.849-55.694-29.834
	l-2.367-3.374c-13.78-18.389-36.043-30.056-60.984-29.195c-21.249,0.735-40.224,10.741-53.1,26.006
	c-12.876-15.265-31.851-25.27-53.1-26.006c-24.94-0.862-47.204,10.804-60.984,29.195l-2.367,3.374
	c-11.989,17.985-32.457,29.834-55.694,29.834c-36.94,0-66.886-29.946-66.886-66.885c0-0.076,0-0.152,0.001-0.228
	c0.036-3.914-5.344-5.04-6.815-1.412C3.608,177.393,0,195.059,0,213.567c0,64.535,44.8,119.29,104.576,134.924
	c0.039,0.01,0.088,0.011,0.128,0.02c11.77,3.067,24.115,4.63,36.816,4.44c29.654-0.442,57.05-10.156,79.449-26.357
	c0.015-0.011,0.038-0.015,0.053-0.026c13.764-9.965,25.637-22.382,34.979-36.611c18.708,28.497,47.573,49.732,81.451,58.538
	c0.446,0.115,0.892,0.211,1.338,0.311c10.17,2.537,20.773,3.982,31.69,4.145C447.753,354.104,512,290.849,512,213.566
	C511.999,195.059,508.392,177.393,501.843,161.234z"/>
<g>
	<path style="fill:#FC7857;" d="M153.636,324.647c-14.416,10.944-31.027,19.148-49.058,23.834
		c11.807,3.088,24.196,4.661,36.942,4.471c29.673-0.443,57.088-10.169,79.496-26.39c-0.86-0.622-1.714-1.254-2.558-1.896
		C199.225,310.066,172.867,310.047,153.636,324.647z"/>
	<path style="fill:#FC7857;" d="M501.843,161.234c-1.471-3.628-6.849-2.504-6.815,1.412c0.001,0.077,0.001,0.153,0.001,0.228
		c0,32.462-23.13,59.515-53.806,65.597c-6.275,57.931-48.655,105.592-103.768,120.009c10.574,2.748,21.63,4.301,33.024,4.47
		C447.753,354.104,512,290.849,512,213.566C511.999,195.059,508.392,177.393,501.843,161.234z"/>
	<!-- original brown
	<path style="fill:#9B6700;" d="M153.636,324.647c-14.416,10.944-31.027,19.148-49.058,23.834
		c11.807,3.088,24.196,4.661,36.942,4.471c29.673-0.443,57.088-10.169,79.496-26.39c-0.86-0.622-1.714-1.254-2.558-1.896
		C199.225,310.066,172.867,310.047,153.636,324.647z"/>
	<path style="fill:#9B6700;" d="M501.843,161.234c-1.471-3.628-6.849-2.504-6.815,1.412c0.001,0.077,0.001,0.153,0.001,0.228
		c0,32.462-23.13,59.515-53.806,65.597c-6.275,57.931-48.655,105.592-103.768,120.009c10.574,2.748,21.63,4.301,33.024,4.47
		C447.753,354.104,512,290.849,512,213.566C511.999,195.059,508.392,177.393,501.843,161.234z"/> -->
</g>
<g>
</g>
<g>
</g>
<g>
</g>
<g>
</g>
<g>
</g>
<g>
</g>
<g>
</g>
<g>
</g>
<g>
</g>
<g>
</g>
<g>
</g>
<g>
</g>
<g>
</g>
<g>
</g>
<g>
</g>
</svg>
